PathFileType	4	(X/Y/Z)	C:\Users\WrightLab\Desktop\Jo\P4V132.trc
DataRate	CameraRate	NumFrames	NumMarkers	Units	OrigDataRate	OrigDataStartFrame	OrigNumFrames
100.00	100.00	       9	19	mm	100.00	193	       512
Frame#	Time	Headset_Front			Headset_Back			Headset_Left			Headset_Right			Left_Shoulder			Right_Shoulder			Sternum			C7			Left Elbow			Right Elbow			Left Wrist			Right Wrist			Left ASIS			Right ASIS			S2			Left Knee			Right Knee			Left Ankle			Right Ankle			
		X1	Y1	Z1	X2	Y2	Z2	X3	Y3	Z3	X4	Y4	Z4	X5	Y5	Z5	X6	Y6	Z6	X7	Y7	Z7	X8	Y8	Z8	X9	Y9	Z9	X10	Y10	Z10	X11	Y11	Z11	X12	Y12	Z12	X13	Y13	Z13	X14	Y14	Z14	X15	Y15	Z15	X16	Y16	Z16	X17	Y17	Z17	X18	Y18	Z18	X19	Y19	Z19	

193	1.920							-214.57381	1707.55859	730.31805	51.65144	1072.35339	854.88654	-182.92952	1522.23438	844.89960				-114.54013	1470.68604	681.50787	-28.08366	1576.17102	812.75983	-220.41862	1174.37231	986.40198	250.38702	1460.13696	422.64590	-255.68527	863.52960	945.40149	159.08028	1478.04871	134.27083	-162.15323	1035.70654	782.37659	109.11790	1043.42285	592.85248				-262.62271	608.94183	666.16956	180.19666	565.29327	693.38208	-153.73019	98.96632	711.27692	233.33495	86.27395	877.79456	
194	1.930							-220.82413	1705.82678	720.92645	47.41411	1070.85486	845.89105	-188.30447	1520.85803	836.62311	58.91261	1561.95496	688.60925	-120.73614	1469.13391	673.12970	-33.87867	1574.81860	804.03217	-225.00441	1173.76270	981.59216	242.61763	1459.74902	412.21994	-260.58240	863.17963	943.88654	151.83350	1478.67053	124.87974	-168.43791	1033.99622	774.00488	102.35545	1041.54980	583.21729				-266.35925	605.27039	661.01440	176.52101	564.68671	689.93097	-180.04440	90.92136	689.73145	232.89047	87.54948	877.35962	
195	1.940							-227.21213	1703.57129	711.70782	41.81937	1070.06519	835.54156	-193.85034	1519.41858	829.20276	51.84893	1560.50208	678.31470	-127.16360	1467.55859	665.20258	-39.67257	1573.19336	795.48456	-229.21086	1173.49463	976.22864	235.96120	1459.20569	402.68326	-264.19781	862.05817	941.10040	144.34190	1478.89258	115.68166	-174.79311	1032.61499	766.18134	96.06460	1039.51904	573.83008				-269.46765	601.18860	656.33954	172.85266	564.20404	685.42023	-205.24440	82.30839	668.25269	232.80548	88.35970	877.16260	
196	1.950							-233.46483	1701.69397	702.50348	35.81454	1068.77417	826.35620	-200.04977	1518.02771	821.58820	45.38883	1558.55078	671.08594	-133.63957	1465.85474	657.00616	-45.49780	1571.57373	786.78461	-233.29013	1173.55737	970.68872	228.68611	1458.98865	393.91968	-268.80463	861.04950	939.58429	137.10130	1478.97852	106.30000	-181.18558	1031.45435	757.36554	89.46322	1037.00623	564.27942				-272.75751	596.38098	651.98163	169.56677	563.72491	681.47162	-231.37169	76.39558	648.20953	232.08421	89.78493	875.88190	
197	1.960							-239.56116	1699.54919	693.35944	29.33893	1067.08691	817.04797	-205.55931	1516.77661	813.53094	39.10819	1556.92358	662.14203	-140.24394	1464.59668	649.07916	-51.64405	1569.89832	778.29242	-238.33600	1172.59058	964.83887	221.69220	1458.31567	384.36685	-274.21021	860.71716	934.51837	130.18979	1478.98560	97.37258	-187.51830	1029.21765	747.99030	82.42198	1035.31714	555.17700				-276.11148	591.52130	647.07300	167.05145	563.92828	675.94208				231.50732	91.68357	875.71082	
198	1.970							-246.06802	1697.86963	684.27240	22.68632	1065.43433	807.59906	-211.52676	1515.09912	805.18524	32.78278	1555.19287	652.78217	-147.37981	1462.83875	641.32166	-58.61724	1568.75476	770.05621	-243.58646	1172.31848	958.52203	214.72508	1457.16528	375.55225	-281.20813	860.86023	929.53839	123.36698	1479.24048	88.23153	-194.36443	1027.58435	739.57367	75.19166	1033.85852	545.52295				-279.12228	587.32556	642.45306	161.99709	563.33905	671.45776				231.36589	93.30804	874.54449	
199	1.980							-252.54105	1696.27661	675.34119	16.08110	1063.74231	798.04907	-217.96086	1513.23181	797.44086	26.00976	1553.24927	644.91760	-153.92790	1461.20569	633.19653	-64.91637	1567.19885	761.78101	-248.55290	1171.98682	952.50940	207.92047	1456.73694	367.02698	-286.93631	860.21936	925.60590	116.60519	1478.92322	79.31094	-203.30522	1026.35669	729.83905	68.29221	1031.35730	537.02747				-283.53580	582.99146	638.14679	157.83778	563.18329	666.44464	-303.09055	69.41972	595.40125	231.19792	95.35072	873.88861	
200	1.990							-259.00397	1694.72717	666.50720	9.06442	1061.79419	789.43103	-224.29410	1512.40857	790.02478	19.42274	1551.43091	637.14655	-160.58847	1459.86523	624.80054	-70.83639	1565.45239	753.39716	-254.30177	1171.40344	946.05957	200.85020	1455.44092	358.44785	-293.86142	859.75714	920.89874	109.86220	1478.62915	71.35307	-210.01851	1024.36987	720.55914	61.41071	1030.09937	527.75500				-288.04810	578.77155	633.53955	153.45229	562.75000	660.40039	-321.31882	69.51093	580.37793	230.81287	97.51087	873.41498	
201	2.000							-265.46091	1693.23999	657.69702	0.06634	1060.23706	780.61597	-230.70183	1510.90479	781.71344	12.49303	1549.73596	629.21564	-168.09558	1458.63171	617.29645	-77.17773	1563.57104	745.29468	-260.52335	1170.67529	939.05731	193.81847	1454.15503	350.30740	-301.22137	858.56543	915.63733	103.43079	1478.06946	63.06495	-217.56508	1022.27222	710.99915	53.99924	1028.22559	518.39142				-294.25122	575.82794	629.09589	148.54883	562.52496	654.02533	-337.96698	69.17818	569.04431	230.25574	100.17596	871.88971	
